<svg fill="#000000" xmlns="http://www.w3.org/2000/svg"  viewBox="0 0 80 80" width="80px" height="80px"><path d="M 11 16 C 8.25 16 6 18.25 6 21 L 6 59 C 6 61.75 8.25 64 11 64 L 69 64 C 71.75 64 74 61.75 74 59 L 74 21 C 74 18.25 71.75 16 69 16 Z M 11 18 L 69 18 C 70.667969 18 72 19.332031 72 21 L 72 59 C 72 60.667969 70.667969 62 69 62 L 11 62 C 9.332031 62 8 60.667969 8 59 L 8 21 C 8 19.332031 9.332031 18 11 18 Z M 12 21 C 11.449219 21 11 21.449219 11 22 C 11 22.550781 11.449219 23 12 23 C 12.550781 23 13 22.550781 13 22 C 13 21.449219 12.550781 21 12 21 Z M 16 21 C 15.449219 21 15 21.449219 15 22 C 15 22.550781 15.449219 23 16 23 C 16.550781 23 17 22.550781 17 22 C 17 21.449219 16.550781 21 16 21 Z M 20 21 C 19.449219 21 19 21.449219 19 22 C 19 22.550781 19.449219 23 20 23 C 20.550781 23 21 22.550781 21 22 C 21 21.449219 20.550781 21 20 21 Z M 24 21 C 23.449219 21 23 21.449219 23 22 C 23 22.550781 23.449219 23 24 23 C 24.550781 23 25 22.550781 25 22 C 25 21.449219 24.550781 21 24 21 Z M 28 21 C 27.449219 21 27 21.449219 27 22 C 27 22.550781 27.449219 23 28 23 C 28.550781 23 29 22.550781 29 22 C 29 21.449219 28.550781 21 28 21 Z M 32 21 C 31.449219 21 31 21.449219 31 22 C 31 22.550781 31.449219 23 32 23 C 32.550781 23 33 22.550781 33 22 C 33 21.449219 32.550781 21 32 21 Z M 36 21 C 35.449219 21 35 21.449219 35 22 C 35 22.550781 35.449219 23 36 23 C 36.550781 23 37 22.550781 37 22 C 37 21.449219 36.550781 21 36 21 Z M 40 21 C 39.449219 21 39 21.449219 39 22 C 39 22.550781 39.449219 23 40 23 C 40.550781 23 41 22.550781 41 22 C 41 21.449219 40.550781 21 40 21 Z M 44 21 C 43.449219 21 43 21.449219 43 22 C 43 22.550781 43.449219 23 44 23 C 44.550781 23 45 22.550781 45 22 C 45 21.449219 44.550781 21 44 21 Z M 48 21 C 47.449219 21 47 21.449219 47 22 C 47 22.550781 47.449219 23 48 23 C 48.550781 23 49 22.550781 49 22 C 49 21.449219 48.550781 21 48 21 Z M 52 21 C 51.449219 21 51 21.449219 51 22 C 51 22.550781 51.449219 23 52 23 C 52.550781 23 53 22.550781 53 22 C 53 21.449219 52.550781 21 52 21 Z M 56 21 C 55.449219 21 55 21.449219 55 22 C 55 22.550781 55.449219 23 56 23 C 56.550781 23 57 22.550781 57 22 C 57 21.449219 56.550781 21 56 21 Z M 60 21 C 59.449219 21 59 21.449219 59 22 C 59 22.550781 59.449219 23 60 23 C 60.550781 23 61 22.550781 61 22 C 61 21.449219 60.550781 21 60 21 Z M 64 21 C 63.449219 21 63 21.449219 63 22 C 63 22.550781 63.449219 23 64 23 C 64.550781 23 65 22.550781 65 22 C 65 21.449219 64.550781 21 64 21 Z M 68 21 C 67.449219 21 67 21.449219 67 22 C 67 22.550781 67.449219 23 68 23 C 68.550781 23 69 22.550781 69 22 C 69 21.449219 68.550781 21 68 21 Z M 45.816406 32.527344 C 41.714844 32.527344 39.59375 34.554688 39.59375 37.125 C 39.59375 41.769531 45.003906 41.136719 45.003906 43.523438 C 45.003906 43.929688 44.691406 44.875 42.4375 44.875 C 40.179688 44.875 38.691406 44.015625 38.691406 44.015625 L 38.015625 47.132813 C 38.015625 47.132813 39.460938 47.988281 42.257813 47.988281 C 45.054688 47.988281 48.933594 45.824219 48.933594 42.714844 C 48.933594 38.972656 43.519531 38.699219 43.519531 37.03125 C 43.519531 36.179688 44.195313 35.546875 46.136719 35.546875 C 47.398438 35.546875 48.84375 36.496094 48.84375 36.496094 L 49.472656 33.246094 C 49.472656 33.246094 47.625 32.527344 45.816406 32.527344 Z M 28.316406 32.824219 L 24.746094 43.292969 C 24.746094 43.292969 24.542969 42.402344 24.453125 41.847656 C 22.421875 37.289063 19.121094 35.621094 19.121094 35.621094 L 22.253906 47.527344 L 26.558594 47.527344 L 32.492188 32.824219 Z M 34.035156 32.824219 L 31.722656 47.527344 L 35.625 47.527344 L 37.984375 32.824219 Z M 55.230469 32.824219 L 48.828125 47.527344 L 52.703125 47.527344 L 53.503906 45.425781 L 58.390625 45.425781 L 58.808594 47.527344 L 62.359375 47.527344 L 59.335938 32.824219 Z M 14.792969 32.855469 C 14.792969 32.855469 16.570313 33.46875 18.59375 34.464844 C 18.984375 34.652344 21.617188 35.859375 23.863281 38.882813 L 22.964844 34.300781 C 22.964844 34.300781 22.371094 32.855469 20.828125 32.855469 Z M 56.714844 37.0625 L 57.824219 42.617188 L 54.589844 42.617188 Z M 12 57 C 11.449219 57 11 57.449219 11 58 C 11 58.550781 11.449219 59 12 59 C 12.550781 59 13 58.550781 13 58 C 13 57.449219 12.550781 57 12 57 Z M 16 57 C 15.449219 57 15 57.449219 15 58 C 15 58.550781 15.449219 59 16 59 C 16.550781 59 17 58.550781 17 58 C 17 57.449219 16.550781 57 16 57 Z M 20 57 C 19.449219 57 19 57.449219 19 58 C 19 58.550781 19.449219 59 20 59 C 20.550781 59 21 58.550781 21 58 C 21 57.449219 20.550781 57 20 57 Z M 24 57 C 23.449219 57 23 57.449219 23 58 C 23 58.550781 23.449219 59 24 59 C 24.550781 59 25 58.550781 25 58 C 25 57.449219 24.550781 57 24 57 Z M 28 57 C 27.449219 57 27 57.449219 27 58 C 27 58.550781 27.449219 59 28 59 C 28.550781 59 29 58.550781 29 58 C 29 57.449219 28.550781 57 28 57 Z M 32 57 C 31.449219 57 31 57.449219 31 58 C 31 58.550781 31.449219 59 32 59 C 32.550781 59 33 58.550781 33 58 C 33 57.449219 32.550781 57 32 57 Z M 36 57 C 35.449219 57 35 57.449219 35 58 C 35 58.550781 35.449219 59 36 59 C 36.550781 59 37 58.550781 37 58 C 37 57.449219 36.550781 57 36 57 Z M 40 57 C 39.449219 57 39 57.449219 39 58 C 39 58.550781 39.449219 59 40 59 C 40.550781 59 41 58.550781 41 58 C 41 57.449219 40.550781 57 40 57 Z M 44 57 C 43.449219 57 43 57.449219 43 58 C 43 58.550781 43.449219 59 44 59 C 44.550781 59 45 58.550781 45 58 C 45 57.449219 44.550781 57 44 57 Z M 48 57 C 47.449219 57 47 57.449219 47 58 C 47 58.550781 47.449219 59 48 59 C 48.550781 59 49 58.550781 49 58 C 49 57.449219 48.550781 57 48 57 Z M 52 57 C 51.449219 57 51 57.449219 51 58 C 51 58.550781 51.449219 59 52 59 C 52.550781 59 53 58.550781 53 58 C 53 57.449219 52.550781 57 52 57 Z M 56 57 C 55.449219 57 55 57.449219 55 58 C 55 58.550781 55.449219 59 56 59 C 56.550781 59 57 58.550781 57 58 C 57 57.449219 56.550781 57 56 57 Z M 60 57 C 59.449219 57 59 57.449219 59 58 C 59 58.550781 59.449219 59 60 59 C 60.550781 59 61 58.550781 61 58 C 61 57.449219 60.550781 57 60 57 Z M 64 57 C 63.449219 57 63 57.449219 63 58 C 63 58.550781 63.449219 59 64 59 C 64.550781 59 65 58.550781 65 58 C 65 57.449219 64.550781 57 64 57 Z M 68 57 C 67.449219 57 67 57.449219 67 58 C 67 58.550781 67.449219 59 68 59 C 68.550781 59 69 58.550781 69 58 C 69 57.449219 68.550781 57 68 57 Z"/></svg>